# xmcd CD database file
#
# Track frame offsets:
#	150
#	17597
#	37600
#	58140
#	77852
#	95175
#	113132
#	134360
#	155640
#	178270
#	196490
#	229092
#	241285
#	278620
#
# Disc length: 3845 seconds
#
# Revision: 0
# Processed by: cddbd v1.5PL3 Copyright (c) Steve Scherf et al.
# Submitted via: CDex 1.51
#
DISCID=bc0f030e
DTITLE=The Jackys - Live im Bürgerhaus
DYEAR=1996
DGENRE=Blues
TTITLE0=High School Confidential
TTITLE1=Kansas City
TTITLE2=Marcs Boogie
TTITLE3=My Ex
TTITLE4=Boppin the Blues
TTITLE5=One Night
TTITLE6=Peter Gunn
TTITLE7=E 13 Boogie
TTITLE8=Sweet Home Chicago
TTITLE9=Please Release Me
TTITLE10=Blue Suede Shoes
TTITLE11=Splish Splash
TTITLE12=Whole Lotta Shaking
TTITLE13=Twenty Finger Boogie
EXTD=YEAR: 1996
EXTT0=
EXTT1=
EXTT2=
EXTT3=
EXTT4=
EXTT5=
EXTT6=
EXTT7=
EXTT8=
EXTT9=
EXTT10=
EXTT11=
EXTT12=
EXTT13=
PLAYORDER=
